<?xml version="1.0" standalone="no"?>
<!DOCTYPE svg PUBLIC "-//W3C//DTD SVG 1.1//EN" "http://www.w3.org/Graphics/SVG/1.1/DTD/svg11.dtd" >
<svg xmlns="http://www.w3.org/2000/svg">
<metadata></metadata>
<defs>
<font id="arconregular" horiz-adv-x="1228" >
<font-face units-per-em="2048" ascent="1638" descent="-410" />
<missing-glyph horiz-adv-x="614" />
<glyph unicode="&#xfb01;" horiz-adv-x="858" d="M82 776v125h121v123q0 87 3 137t20 123t50 109.5t98 59t158 9.5v-127q-47 6 -82 -3t-55 -29.5t-33 -49t-16.5 -62t-5.5 -68.5t0 -68v-31v-123h414v-901h-138v776h-276v-776h-137v776h-121zM590 1182q0 36 27.5 63t66.5 27q37 0 64.5 -27.5t27.5 -62.5q0 -40 -27.5 -68.5 t-64.5 -28.5q-39 0 -66.5 28.5t-27.5 68.5z" />
<glyph unicode="&#xfb02;" horiz-adv-x="903" d="M82 776v125h121v123q0 88 3.5 139t26.5 125.5t66 111.5t129 58t209 4h133v-1462h-137v1335q-43 6 -80 5.5t-64 -6.5t-49.5 -17.5t-37.5 -26.5t-26.5 -33.5t-17.5 -39.5t-11 -42.5t-5.5 -44t-1.5 -44t0 -41.5v-21v-123h162v-125h-162v-776h-137v776h-121z" />
<glyph horiz-adv-x="0" />
<glyph horiz-adv-x="682" />
<glyph unicode=" "  horiz-adv-x="614" />
<glyph unicode="&#x09;" horiz-adv-x="614" />
<glyph unicode="&#xa0;" horiz-adv-x="614" />
<glyph unicode="!" horiz-adv-x="432" d="M102 102q0 46 34 79.5t81 33.5q46 0 79.5 -33.5t33.5 -79.5q0 -47 -33.5 -80.5t-79.5 -33.5q-47 0 -81 33.5t-34 80.5zM150 373v1089h137v-1089h-137z" />
<glyph unicode="&#x22;" d="M408 1450h4l-2 16q0 37 26 62.5t64 25.5q36 0 62 -26t26 -62q0 -21 -10 -41l-39 -243h-88zM696 1450h4l-2 16q0 37 26 62.5t64 25.5q36 0 62.5 -26t26.5 -62q0 -19 -11 -41l-39 -243h-88z" />
<glyph unicode="#" horiz-adv-x="1091" d="M61 389v133h205l92 248l-229 2v133l279 -2l127 346h139l-127 -346h184l127 346h139l-129 -348h162l-2 -133h-207l-92 -248l234 -2l-2 -133l-281 2l-133 -360h-139l133 360h-185l-133 -360h-139l133 362h-156zM406 520h184l92 250h-184z" />
<glyph unicode="$" horiz-adv-x="1087" d="M66 373h155q19 -93 90 -158t170 -80v570q-187 63 -275.5 152t-88.5 237q0 155 99.5 262.5t264.5 126.5v114h107v-114q135 -15 232 -103t120 -217h-164q-20 62 -71 107.5t-117 58.5v-491q100 -34 171 -70t131.5 -86.5t91 -119.5t30.5 -156q0 -176 -120 -291.5t-304 -130.5 v-115h-107v115q-163 17 -279 125t-136 264zM272 1094q0 -82 50 -132t159 -90v459q-95 -18 -152 -84.5t-57 -152.5zM588 133q119 14 193.5 87t74.5 186q0 93 -61 153t-207 111v-537z" />
<glyph unicode="%" horiz-adv-x="1615" d="M123 1151q0 -159 73 -246.5t216 -87.5q142 0 215 87t73 247q0 156 -72.5 241t-215.5 85t-216 -85t-73 -241zM205 0l1005 1427h160l-1003 -1427h-162zM246 1151q0 98 41.5 151.5t124.5 53.5q84 0 126 -53.5t42 -151.5q0 -101 -42 -157t-126 -56q-83 0 -124.5 56t-41.5 157 zM915 324q0 -159 73 -246.5t216 -87.5t216 87.5t73 246.5q0 156 -73 240.5t-216 84.5t-216 -84.5t-73 -240.5zM1038 324q0 97 41.5 150.5t124.5 53.5q84 0 126 -53t42 -151q0 -101 -42 -157t-126 -56q-83 0 -124.5 56t-41.5 157z" />
<glyph unicode="&#x26;" horiz-adv-x="1095" d="M24.5 374q-0.5 69 19.5 139t67 139.5t116 123.5q-117 191 -96 373q17 130 86.5 213t169.5 104q148 31 269.5 -17.5t170.5 -172.5q15 -39 23.5 -96.5t1.5 -112.5h-156q10 72 -14 147q-16 42 -46 70.5t-62.5 38.5t-66.5 14t-58 -2q-66 -11 -111 -60.5t-55 -127.5 q-14 -103 44 -223t216 -330q33 -43 112.5 -142.5t120.5 -152.5q57 77 103 203h155q-32 -95 -78 -178t-92 -136l148 -188h-189l-71 86q-112 -76 -227.5 -97.5t-208.5 7t-164.5 94t-104.5 156.5q-22 59 -22.5 128zM165 414q-4 -61 15 -117q17 -49 50 -87t80 -61t102 -28.5 t120 13.5t130 63q-152 187 -240 303q-64 86 -117 162q-63 -54 -99.5 -120.5t-40.5 -127.5z" />
<glyph unicode="'" horiz-adv-x="403" d="M113 1446h4l-2 16q0 37 26 62.5t64 25.5q36 0 62 -26t26 -62q0 -21 -10 -41l-39 -243h-88z" />
<glyph unicode="(" horiz-adv-x="802" d="M68 647q0 251 114 473.5t312 374.5h174q-198 -152 -312 -374.5t-114 -473.5t114 -474t312 -376h-174q-198 153 -312 376t-114 474z" />
<glyph unicode=")" horiz-adv-x="729" d="M61 -203q198 153 312 376t114 474t-114 473.5t-312 374.5h175q198 -152 312 -374.5t114 -473.5t-114 -474t-312 -376h-175z" />
<glyph unicode="*" horiz-adv-x="700" d="M61 1341l48 89l190 -93v226h102v-226l191 93l47 -89l-197 -94l138 -172l-78 -59l-152 190l-151 -190l-78 59l137 172z" />
<glyph unicode="+" d="M102 496v137h445v444h137v-444h442v-137h-442v-443h-137v443h-445z" />
<glyph unicode="," horiz-adv-x="411" d="M51 104q0 46 34 79.5t81 33.5q46 0 79.5 -33.5t33.5 -79.5q0 -31 -23 -77l-98 -187h-66l39 156q-36 11 -58 40.5t-22 67.5z" />
<glyph unicode="-" horiz-adv-x="1050" d="M133 516v137h785v-137h-785z" />
<glyph unicode="." horiz-adv-x="411" d="M51 104q0 46 34 79.5t81 33.5q46 0 79.5 -33.5t33.5 -79.5q0 -47 -33.5 -80.5t-79.5 -33.5q-47 0 -81 33.5t-34 80.5z" />
<glyph unicode="/" horiz-adv-x="870" d="M121 -137l549 1677h139l-549 -1677h-139z" />
<glyph unicode="0" horiz-adv-x="1372" d="M72 735q0 -365 153.5 -561.5t460.5 -196.5t460.5 196.5t153.5 561.5q0 357 -157 558.5t-457 201.5q-305 0 -459.5 -200.5t-154.5 -559.5zM219 735q0 289 115.5 450t351.5 161t351.5 -161t115.5 -450q0 -295 -114.5 -451.5t-352.5 -156.5t-352.5 156.5t-114.5 451.5z" />
<glyph unicode="1" horiz-adv-x="552" d="M82 1329v133h307v-1462h-143v1319z" />
<glyph unicode="2" horiz-adv-x="1062" d="M82 0v207q0 79 25 147t68 118t98 94t116 80t122.5 69.5t116.5 69t98 73.5t68 86.5t25 104.5q0 130 -73 213.5t-207 83.5t-213.5 -83.5t-79.5 -213.5h-156q-5 194 118.5 320t330.5 126q92 0 171 -27.5t140 -81t96 -140.5t35 -197q0 -96 -40.5 -176t-105 -135t-142 -103.5 t-155.5 -92.5t-142.5 -90t-105 -108.5t-40.5 -136.5v-64h723v-143h-891z" />
<glyph unicode="3" horiz-adv-x="1013" d="M82 0v143h383q139 0 225 86t86 226q0 139 -86 225t-225 86h-162l328 553h-549v143h797l-334 -561q179 -28 283 -146.5t104 -299.5q0 -204 -128.5 -329.5t-338.5 -125.5h-383z" />
<glyph unicode="4" horiz-adv-x="1175" d="M61 408v143l660 911h162v-911h211v-143h-211v-408h-150v408h-672zM240 551h493v688z" />
<glyph unicode="5" horiz-adv-x="1071" d="M61 373h148q31 -104 118.5 -171t198.5 -67q139 0 236.5 98.5t97.5 237.5q0 148 -87.5 245t-246.5 93q-130 0 -227 -90h-149v743h737v-143h-588v-428q105 57 227 57q218 4 351 -134t133 -343q0 -128 -65.5 -237.5t-177 -173.5t-241.5 -64q-170 0 -300.5 107t-164.5 270z " />
<glyph unicode="6" horiz-adv-x="1095" d="M72 463q0 94 37 186q44 107 146.5 310t183.5 353l81 150h160q-20 -32 -123.5 -222t-175.5 -331q79 31 166 31q198 0 337.5 -139.5t139.5 -337.5q0 -97 -37.5 -184.5t-101.5 -151.5t-152.5 -101.5t-185.5 -37.5t-184.5 37.5t-151.5 101.5t-101.5 151.5t-37.5 184.5z M215 463q0 -138 97 -237t235 -99q139 0 236.5 98.5t97.5 237.5q0 140 -97.5 239t-236.5 99q-138 0 -235 -99t-97 -239z" />
<glyph unicode="7" horiz-adv-x="1030" d="M61 1319v143h887v-143l-594 -1319h-170l594 1319h-717z" />
<glyph unicode="8" horiz-adv-x="1097" d="M82 414q-1 123 59 218.5t164 149.5q-86 54 -136.5 138t-49.5 182q-1 164 126.5 272.5t301.5 108.5q113 0 211 -47.5t159 -136t62 -197.5q-1 -99 -52 -182.5t-136 -137.5q103 -54 163.5 -149.5t61.5 -218.5q-1 -123 -64.5 -222t-170.5 -153.5t-234 -54.5 q-195 0 -330.5 122t-134.5 308zM225 414q-1 -131 91 -213t231 -82t231.5 81.5t93.5 213.5q-1 133 -93 212t-232 79t-231.5 -79t-90.5 -212zM266 1102q-1 -116 77.5 -182t203.5 -66t204.5 66t79.5 182q0 117 -78.5 179t-205.5 62t-204.5 -62t-76.5 -179z" />
<glyph unicode="9" horiz-adv-x="1054" d="M41 1008q0 97 37.5 184.5t101.5 151.5t152.5 101.5t185.5 37.5q196 0 335.5 -139.5t139.5 -335.5q0 -95 -37 -187l-387 -821h-159l264 557q-74 -27 -156 -27q-130 0 -240 64t-173.5 174t-63.5 240zM184 1008q0 -140 97.5 -239t236.5 -99q138 0 235 99t97 239 q0 138 -97 236.5t-235 98.5q-139 0 -236.5 -98.5t-97.5 -236.5z" />
<glyph unicode=":" horiz-adv-x="440" d="M111 104q0 46 33.5 79.5t80.5 33.5q46 0 79.5 -33.5t33.5 -79.5q0 -47 -33.5 -80.5t-79.5 -33.5q-47 0 -80.5 33.5t-33.5 80.5zM111 795q0 46 33.5 79t80.5 33q46 0 79.5 -33t33.5 -79q0 -47 -33.5 -81t-79.5 -34q-47 0 -80.5 34t-33.5 81z" />
<glyph unicode=";" horiz-adv-x="432" d="M94 104q0 46 34 79.5t81 33.5q46 0 79.5 -33.5t33.5 -79.5q0 -31 -23 -77l-98 -187h-66l39 156q-36 11 -58 40.5t-22 67.5zM106 801q0 46 34 79t81 33q46 0 79.5 -33t33.5 -79q0 -47 -33.5 -81t-79.5 -34q-47 0 -81 34t-34 81z" />
<glyph unicode="&#x3c;" horiz-adv-x="1202" d="M72 604l1058 453v-158l-690 -295l690 -295v-157z" />
<glyph unicode="=" horiz-adv-x="1146" d="M61 373v137h1024v-137h-1024zM61 700v138h1024v-138h-1024z" />
<glyph unicode="&#x3e;" horiz-adv-x="1202" d="M72 152v157l690 295l-690 295v158l1058 -453z" />
<glyph unicode="?" horiz-adv-x="1124" d="M119 1114q6 161 118 263t295 102q204 0 311 -106t107 -271q0 -258 -278 -352q-77 -26 -93.5 -86.5t-15.5 -236.5v-54h-149q0 26 -1 75q-1 169 13 235q26 114 125 172q38 21 88 38q44 15 76 41t48.5 56t24 58t7.5 54q0 100 -73 163.5t-190 63.5q-113 0 -180 -58.5 t-78 -156.5h-155zM369 102q0 46 33.5 79.5t80.5 33.5q46 0 79.5 -33.5t33.5 -79.5q0 -47 -33.5 -80.5t-79.5 -33.5q-47 0 -80.5 33.5t-33.5 80.5z" />
<glyph unicode="@" horiz-adv-x="1808" d="M61 485q0 171 67.5 329.5t180 274.5t267 185t321.5 69q175 0 333.5 -69t271 -185t179 -274t66.5 -330q0 -81 -12 -155q-24 -157 -121 -236t-209 -61q-69 11 -112 50.5t-64 117.5q-53 -94 -140.5 -148.5t-199.5 -54.5q-125 0 -229.5 65t-163 173t-58.5 233 q0 194 130.5 330.5t320.5 136.5q186 0 299 -139v104h137v-508q0 -125 21 -177.5t79 -61.5q60 -11 105 35t61 161q13 70 13 135q0 193 -92.5 358.5t-256 264t-358.5 98.5q-138 0 -266 -58t-221 -155.5t-149 -230.5t-56 -277q0 -196 94 -366t254 -270.5t344 -100.5 q146 0 244.5 35.5t210.5 122.5h188q-136 -161 -278.5 -228t-364.5 -67q-167 0 -321.5 70.5t-267 188t-180 279t-67.5 336.5zM582 469q0 -138 85 -237t218 -99q130 0 212.5 99t82.5 237q0 140 -82 236t-213 96q-134 0 -218.5 -96t-84.5 -236z" />
<glyph unicode="A" horiz-adv-x="1476" d="M0 0l657 1462h162l658 -1462h-162l-262 582h-629l-262 -582h-162zM487 725h502l-250 557z" />
<glyph unicode="B" horiz-adv-x="1245" d="M164 0v1462h522q163 0 262 -95.5t99 -252.5q0 -162 -125 -266q105 -60 168 -164t63 -229q0 -204 -128.5 -329.5t-338.5 -125.5h-522zM313 143h373q139 0 225 86t86 226q0 139 -85.5 225t-225.5 86h-373v-623zM313 909h373q92 0 148.5 56.5t56.5 148.5t-56.5 148.5 t-148.5 56.5h-373v-410z" />
<glyph unicode="C" horiz-adv-x="1558" d="M61 737q0 148 61 285t163 237t244 160t296 60q201 0 373.5 -98.5t274.5 -262.5h-187q-85 99 -204.5 155t-256.5 56q-166 0 -306 -80.5t-221 -216.5t-81 -295q0 -166 81 -306t221 -221t306 -81q139 0 260.5 58t204.5 161h187q-101 -168 -274.5 -268t-377.5 -100 q-155 0 -296 60t-243.5 161.5t-163.5 241.5t-61 294z" />
<glyph unicode="D" horiz-adv-x="1378" d="M164 0v1462h389q398 0 570.5 -170t172.5 -561t-172.5 -561t-570.5 -170h-389zM313 143h240q315 0 451.5 136.5t136.5 451.5t-136.5 451.5t-451.5 136.5h-240v-1176z" />
<glyph unicode="E" horiz-adv-x="1155" d="M164 0v1462h848v-143h-699v-410h658v-143h-658v-623h699v-143h-848z" />
<glyph unicode="F" horiz-adv-x="1013" d="M164 0v1462h788v-143h-639v-410h592v-143h-592v-766h-149z" />
<glyph unicode="G" horiz-adv-x="1630" d="M61 739q0 148 61 285t163 237t244 160t296 60q208 0 380.5 -104.5t273.5 -278.5h-168q-85 108 -213 170.5t-273 62.5q-166 0 -306 -80.5t-221 -216.5t-81 -295q0 -166 81 -306t221 -221t306 -81q158 0 293.5 75.5t218.5 203.5v329h150v-739h-150v178 q-103 -94 -234.5 -145t-277.5 -51q-155 0 -296 60t-243.5 161.5t-163.5 241.5t-61 294z" />
<glyph unicode="H" horiz-adv-x="1470" d="M164 0v1462h149v-602h850v602h144v-1462h-144v717h-850v-717h-149z" />
<glyph unicode="I" horiz-adv-x="477" d="M164 0v1462h149v-1462h-149z" />
<glyph unicode="J" horiz-adv-x="722" d="M0 -260q193 0 301.5 109t108.5 303v1310h149v-1310q0 -264 -147.5 -413t-411.5 -149v150z" />
<glyph unicode="K" horiz-adv-x="1255" d="M164 0v1462h149v-690l635 690h187l-580 -643l700 -819h-186l-612 709l-144 -160v-549h-149z" />
<glyph unicode="L" horiz-adv-x="1048" d="M164 0v1462h149v-1319h674v-143h-823z" />
<glyph unicode="M" horiz-adv-x="1785" d="M164 0v1462h170l559 -1298l559 1298h170v-1462h-149v1120l-490 -1120h-178l-492 1120v-1120h-149z" />
<glyph unicode="N" horiz-adv-x="1572" d="M164 0v1462h180l916 -1257v1257h149v-1462h-180l-916 1257v-1257h-149z" />
<glyph unicode="O" horiz-adv-x="1667" d="M72 741q0 148 60.5 285t162.5 237t243.5 160t295.5 60t295.5 -60t243 -160t162 -237t60.5 -285q0 -206 -102 -380t-277 -275.5t-382 -101.5q-155 0 -296 60t-243 161.5t-162.5 241.5t-60.5 294zM227 741q0 -166 80.5 -306t220.5 -221t306 -81t305.5 81t220 221t80.5 306 q0 159 -80.5 295t-220 216.5t-305.5 80.5t-306 -80.5t-220.5 -216.5t-80.5 -295z" />
<glyph unicode="P" horiz-adv-x="1171" d="M164 0v1462h479q209 0 338 -125t129 -329t-128.5 -329.5t-338.5 -125.5h-330v-553h-149zM313 696h330q139 0 225 86t86 226t-85 225.5t-226 85.5h-330v-623z" />
<glyph unicode="Q" horiz-adv-x="1658" d="M61 735q0 148 60.5 285t162.5 237t243.5 160t295.5 60t295.5 -60t243.5 -160t162.5 -237t60.5 -285q0 -175 -75 -328.5t-207 -259.5l122 -155l-127 -107l-135 172q-160 -80 -340 -80q-155 0 -296 60t-243 161.5t-162.5 242t-60.5 294.5zM217 735q0 -166 80.5 -306 t220 -221t305.5 -81q132 0 246 51l-201 258l127 103l215 -273q103 85 161.5 207t58.5 262q0 159 -80.5 295t-220.5 216.5t-306 80.5t-305.5 -80.5t-220 -216.5t-80.5 -295z" />
<glyph unicode="R" horiz-adv-x="1241" d="M164 0v1462h479q209 0 338 -125t129 -329q0 -169 -90 -286.5t-246 -154.5l447 -567h-199l-436 553h-273v-553h-149zM313 696h330q139 0 225 86t86 226t-85 225.5t-226 85.5h-330v-623z" />
<glyph unicode="S" horiz-adv-x="1073" d="M66 373h155q22 -106 110 -174t206 -68q137 0 228 75t91 200q0 100 -72 163t-247 117q-217 67 -318.5 158.5t-101.5 249.5q0 168 117 279.5t303 111.5q153 0 265.5 -90.5t137.5 -231.5h-164q-24 73 -90.5 122.5t-148.5 49.5q-117 0 -191 -71t-74 -170q0 -91 62.5 -143.5 t202.5 -96.5q89 -28 154.5 -55t129 -66t103.5 -83.5t64 -106.5t24 -137q0 -188 -136.5 -306t-338.5 -118q-183 0 -316 110.5t-155 280.5z" />
<glyph unicode="T" horiz-adv-x="1179" d="M20 1319v143h1139v-143h-493v-1319h-150v1319h-496z" />
<glyph unicode="U" horiz-adv-x="1368" d="M123 528v934h149v-934q0 -194 109.5 -302.5t304.5 -108.5q193 0 301.5 108.5t108.5 302.5v934h149v-934q0 -264 -147.5 -412.5t-411.5 -148.5q-265 0 -414 148.5t-149 412.5z" />
<glyph unicode="V" horiz-adv-x="1394" d="M0 1462h162l536 -1269l535 1269h162l-617 -1462h-162z" />
<glyph unicode="W" horiz-adv-x="2004" d="M-51 1462h149l416 -1239l414 1239h149l416 -1239l414 1239h149l-489 -1462h-150l-413 1239l-416 -1239h-150z" />
<glyph unicode="X" horiz-adv-x="1339" d="M20 0l553 731l-553 731h193l457 -604l456 604h193l-553 -731l553 -731h-193l-456 604l-457 -604h-193z" />
<glyph unicode="Y" horiz-adv-x="1175" d="M0 1462h162l426 -870l426 870h162l-717 -1462h-162l209 428z" />
<glyph unicode="Z" horiz-adv-x="1363" d="M102 0v139l959 1184h-926v139h1116v-139l-958 -1184h952v-139h-1143z" />
<glyph unicode="[" d="M664 -205v1833h409v-131h-272v-1571h272v-131h-409z" />
<glyph unicode="\" d="M414 1540h139l549 -1677h-139z" />
<glyph unicode="]" horiz-adv-x="614" d="M102 -74h273v1571h-273v131h410v-1833h-410v131z" />
<glyph unicode="^" horiz-adv-x="905" d="M0 403l453 1059l452 -1059h-157l-295 691l-295 -691h-158z" />
<glyph unicode="_" d="M123 -285h999v-125h-999v125z" />
<glyph unicode="`" d="M477 1382h178l213 -297h-153z" />
<glyph unicode="a" horiz-adv-x="1159" d="M72 449q0 126 63 233.5t170.5 170t233.5 62.5q101 0 189 -43t151 -118v147h137v-905h-137v147q-63 -77 -151.5 -121.5t-188.5 -44.5q-125 0 -233.5 65t-171 174t-62.5 233zM215 449q0 -136 93 -236t227 -100q133 0 234 101t101 235q0 135 -100 233t-235 98t-227.5 -96.5 t-92.5 -234.5z" />
<glyph unicode="b" horiz-adv-x="1159" d="M143 0v1462h138v-708q63 75 151 118t189 43q192 0 329 -137t137 -329q0 -124 -62.5 -233t-170.5 -174t-233 -65q-100 0 -188.5 44.5t-151.5 121.5v-143h-138zM289 449q0 -133 101.5 -234.5t234.5 -101.5q134 0 226.5 100t92.5 236q0 138 -92 234.5t-227 96.5t-235.5 -98 t-100.5 -233z" />
<glyph unicode="c" horiz-adv-x="1050" d="M72 449q0 126 63 233.5t170.5 170t233.5 62.5q148 0 268 -85.5t170 -221.5h-154q-42 78 -117 125t-167 47q-136 0 -230 -97t-94 -234q0 -135 94.5 -235.5t229.5 -100.5q91 0 166 48.5t118 127.5h156q-48 -138 -168.5 -225t-271.5 -87q-125 0 -233.5 65t-171 174 t-62.5 233z" />
<glyph unicode="d" horiz-adv-x="1159" d="M82 449q0 126 63 233.5t170.5 170t233.5 62.5q101 0 189 -43t151 -118v708h137v-1462h-137v143q-63 -77 -151.5 -121.5t-188.5 -44.5q-125 0 -233.5 65t-171 174t-62.5 233zM225 449q0 -136 93 -236t227 -100q133 0 234.5 101.5t101.5 234.5q0 135 -100.5 233t-235.5 98 t-227.5 -96.5t-92.5 -234.5z" />
<glyph unicode="e" horiz-adv-x="1077" d="M72 449q0 126 63 233.5t170.5 170t233.5 62.5t233.5 -62.5t170.5 -170t63 -233.5v-64h-785q22 -115 111 -193.5t207 -78.5q76 0 140.5 33.5t108.5 91.5h170q-58 -118 -171 -189.5t-248 -71.5q-125 0 -233.5 65t-171 174t-62.5 233zM221 516h635q-24 114 -112 189t-205 75 q-118 0 -206 -75t-112 -189z" />
<glyph unicode="f" horiz-adv-x="593" d="M82 776h121v-776h137v776h182v125h-182v123q0 124 4 156q18 141 125 156q28 3 63 -1v127q-34 5 -64 5q-53 0 -94 -15q-65 -22 -98 -58.5t-50 -109.5t-20 -123t-3 -137v-123h-121v-125z" />
<glyph unicode="g" horiz-adv-x="1161" d="M82 453q0 124 63 232.5t171 173.5t233 65q99 0 186 -43t150 -117v137h143v-819q0 -129 -36.5 -228.5t-101 -160.5t-148 -92t-181.5 -31q-151 0 -271.5 86.5t-168.5 224.5h155q43 -79 118.5 -127.5t166.5 -48.5q148 0 236 89t88 288v59q-63 -72 -150 -113.5t-186 -41.5 q-126 0 -233.5 63t-170.5 170.5t-63 233.5zM225 453q0 -138 92.5 -235t227.5 -97t235.5 98.5t100.5 233.5q0 133 -101 234t-235 101t-227 -99.5t-93 -235.5z" />
<glyph unicode="h" horiz-adv-x="1067" d="M143 0v1544h138v-751q113 122 294 122q195 0 282 -93.5t87 -307.5v-514h-137v514q0 132 -59.5 199t-172.5 67q-139 0 -216.5 -77t-77.5 -224v-479h-138z" />
<glyph unicode="i" horiz-adv-x="440" d="M123 1182q0 37 28.5 65.5t69.5 28.5q38 0 67 -28.5t29 -65.5q0 -41 -28.5 -70t-67.5 -29q-41 0 -69.5 29t-28.5 70zM152 0v901h143v-901h-143z" />
<glyph unicode="j" horiz-adv-x="458" d="M0 -283q102 0 159 79q54 75 54 192v12v901h143v-901v-12q0 -187 -90 -294q-92 -112 -264 -112zM186 1182q0 37 29 65.5t70 28.5q38 0 67 -28.5t29 -65.5q0 -41 -28.5 -70t-67.5 -29q-41 0 -70 29t-29 70z" />
<glyph unicode="k" horiz-adv-x="944" d="M133 0h137v377l88 86l402 -463h184l-485 561l370 359h-192l-336 -328h-31v870h-137v-1462z" />
<glyph unicode="l" horiz-adv-x="403" d="M133 0v1462h137v-1462h-137z" />
<glyph unicode="m" horiz-adv-x="1619" d="M133 0v901h137v-108q103 122 271 122q120 0 194 -41.5t109 -132.5q48 84 126 129t179 45q176 0 257 -94t81 -307v-514h-137v514q0 266 -201 266q-129 0 -199.5 -76t-70.5 -235v-469h-138v514q0 266 -200 266q-129 0 -200 -76t-71 -235v-469h-137z" />
<glyph unicode="n" horiz-adv-x="1067" d="M143 0v901h138v-108q113 122 294 122q195 0 282 -93.5t87 -307.5v-514h-137v514q0 132 -59.5 199t-172.5 67h-10q-133 0 -207 -74q-78 -77 -77 -227v-479h-138z" />
<glyph unicode="o" horiz-adv-x="1077" d="M72 449q0 126 63 233.5t170.5 170t233.5 62.5t233.5 -62.5t170.5 -170t63 -233.5q0 -124 -62.5 -233t-171 -174t-233.5 -65t-233.5 65t-171 174t-62.5 233zM215 449q0 -135 94.5 -235.5t229.5 -100.5t229 100.5t94 235.5q0 137 -93.5 234t-229.5 97t-230 -97t-94 -234z " />
<glyph unicode="p" horiz-adv-x="1128" d="M123 -410v1311h137v-147q63 75 151 118t189 43q126 0 233.5 -62.5t170.5 -170t63 -233.5q0 -124 -62.5 -233t-171 -174t-233.5 -65q-100 0 -188.5 44.5t-151.5 121.5v-553h-137zM268 449q0 -133 101 -234.5t235 -101.5t227 100t93 236q0 138 -92.5 234.5t-227.5 96.5 t-235.5 -98t-100.5 -233z" />
<glyph unicode="q" horiz-adv-x="1159" d="M82 449q0 126 63 233.5t170.5 170t233.5 62.5q101 0 189 -43t151 -118v147h137v-1311h-137v553q-63 -77 -151.5 -121.5t-188.5 -44.5q-125 0 -233.5 65t-171 174t-62.5 233zM225 449q0 -136 93 -236t227 -100q133 0 234.5 101.5t101.5 234.5q0 135 -100.5 233t-235.5 98 t-227.5 -96.5t-92.5 -234.5z" />
<glyph unicode="r" horiz-adv-x="626" d="M143 0v901h138v-123q121 137 305 137v-135q-127 0 -216 -75t-89 -207v-498h-138z" />
<glyph unicode="s" horiz-adv-x="856" d="M82 256h125q9 -58 72 -99.5t149 -41.5q99 0 160 39.5t61 101.5q0 63 -46.5 92t-174.5 55q-162 32 -236.5 95t-74.5 170q0 108 81.5 177.5t229.5 69.5q132 0 216 -65.5t95 -169.5h-125q-9 47 -58.5 76.5t-127.5 29.5q-81 0 -132.5 -33.5t-51.5 -84.5t48.5 -82.5 t158.5 -53.5q173 -35 248 -99t75 -177q0 -122 -90.5 -196t-255.5 -74q-151 0 -245.5 75t-100.5 195z" />
<glyph unicode="t" horiz-adv-x="577" d="M61 776v125h136v354h137v-354h203v-125h-203v-776h-137v776h-136z" />
<glyph unicode="u" horiz-adv-x="1067" d="M123 387v514h137v-514q0 -132 59.5 -199t172.5 -67q139 0 216.5 77t77.5 224v479h138v-901h-138v109q-114 -123 -294 -123q-195 0 -282 93.5t-87 307.5z" />
<glyph unicode="v" horiz-adv-x="915" d="M12 901h150l297 -719l295 719h149l-371 -901h-149z" />
<glyph unicode="w" horiz-adv-x="1478" d="M0 901h143l263 -708l262 708h143l262 -708l262 708h144l-334 -901h-144l-262 709l-262 -709h-143z" />
<glyph unicode="x" horiz-adv-x="937" d="M31 0l348 465l-328 436h168l244 -323l244 323h167l-327 -436l350 -465h-168l-266 352l-264 -352h-168z" />
<glyph unicode="y" horiz-adv-x="972" d="M12 901h162l318 -637l319 637h162l-400 -801l-256 -510h-161l256 512z" />
<glyph unicode="z" horiz-adv-x="874" d="M102 0v131l506 639h-506v131h678v-131l-506 -639h519v-131h-691z" />
<glyph unicode="{" horiz-adv-x="561" d="M61 606v154q26 5 46.5 13.5t35 25.5t24.5 31.5t16.5 43t10.5 48t5.5 59.5t2 64.5t1 75t0.5 79.5q1 104 8.5 174t26.5 126t53 87t84.5 46.5t124.5 15.5v-103q-60 -10 -92 -35.5t-50.5 -93t-19.5 -192.5q-2 -220 -25.5 -347t-91.5 -194q68 -68 91.5 -195.5t25.5 -347.5 q1 -125 19.5 -192.5t50.5 -93t92 -35.5v-103q-74 0 -124.5 15.5t-84.5 46.5t-53 87t-26.5 126t-8.5 174q0 29 -0.5 79.5t-1 75t-2 64.5t-5.5 59.5t-10.5 48t-16.5 43t-24.5 31.5t-35 25.5t-46.5 13.5z" />
<glyph unicode="|" horiz-adv-x="401" d="M133 -266l4 1802l131 2l-4 -1804h-131z" />
<glyph unicode="}" horiz-adv-x="561" d="M61 -180q60 10 92 35.5t50.5 93t19.5 192.5q2 220 25.5 347t91.5 194q-68 68 -91.5 195.5t-25.5 347.5q-1 125 -19.5 192.5t-50.5 93t-92 35.5v103q74 0 124.5 -15.5t84.5 -46.5t53 -87t26.5 -126t8.5 -174q0 -29 0.5 -79.5t1 -75t2 -64.5t5.5 -59.5t10.5 -48t16.5 -43 t24.5 -31.5t35 -25.5t46.5 -13.5v-154q-26 -5 -46.5 -13.5t-35 -25.5t-24.5 -31.5t-16.5 -43t-10.5 -48t-5.5 -59.5t-2 -64.5t-1 -75t-0.5 -79.5q-1 -104 -8.5 -174t-26.5 -126t-53 -87t-84.5 -46.5t-124.5 -15.5v103z" />
<glyph unicode="~" horiz-adv-x="960" d="M61 539q8 88 32 143t73 85t130.5 21.5t197.5 -53.5q46 -20 75 -31t63 -20.5t54.5 -8t39 10.5t28.5 31.5t12 58.5h133q-6 -70 -22 -119t-48 -82.5t-80 -44t-118.5 1.5t-163.5 48q-46 20 -75 31t-63 20.5t-54.5 8t-39 -10.5t-28.5 -31.5t-12 -58.5h-134z" />
<glyph unicode="&#xa1;" horiz-adv-x="432" d="M102 952q0 47 33.5 81t79.5 34q47 0 81 -34t34 -81q0 -46 -34 -79t-81 -33q-46 0 -79.5 33t-33.5 79zM145 -408v1090h138v-1090h-138z" />
<glyph unicode="&#xa2;" horiz-adv-x="1009" d="M72 735q0 171 112 302t279 159v266h104v-260q140 -9 252 -93.5t158 -213.5h-154q-39 73 -106 118.5t-150 51.5l2 -664q81 7 148 54t106 120h156q-44 -131 -156.5 -216.5t-253.5 -94.5v-262h-104v268q-166 28 -279.5 161.5t-113.5 303.5zM215 735q0 -115 70.5 -207 t179.5 -120l-2 651q-108 -26 -178 -117t-70 -207z" />
<glyph unicode="&#xa3;" horiz-adv-x="944" d="M61 0v143q49 2 85.5 27.5t58 64t34.5 95t17 110t4 119.5v105h-178v143h178v137q0 67 2 118.5t8.5 110t17 100.5t29.5 84t45 67.5t63.5 43.5t84.5 19.5t109 -12t137 -43.5v-148q-57 28 -103 41.5t-80 16.5t-60.5 -11.5t-43.5 -29.5t-28.5 -50.5t-17.5 -60.5t-9 -75 t-3.5 -78.5t-0.5 -83.5v-9v-137h219v-143h-219v-105q0 -283 -84 -416h557v-143h-822z" />
<glyph unicode="&#xa4;" horiz-adv-x="1036" d="M29 362l114 115q-92 126 -92 277q0 150 92 276l-114 115l49 49l49 51l115 -115q129 91 276 91q150 0 277 -93l114 115l49 -49l50 -47l-115 -115q92 -126 92 -278q0 -149 -92 -275l115 -114l-50 -52l-49 -49l-112 113q-129 -94 -279 -94q-151 0 -278 96l-113 -113l-49 47z M195 754q0 -135 94 -235.5t229 -100.5t229.5 100.5t94.5 235.5q0 137 -94 234t-230 97t-229.5 -97t-93.5 -234z" />
<glyph unicode="&#xa5;" d="M12 1462h158l414 -665l413 665h158l-498 -796h261v-144h-261v-102h261v-144h-261v-276h-149v276h-256v144h256v102h-256v144h256z" />
<glyph unicode="&#xa6;" horiz-adv-x="403" d="M133 -266v751h137v-751h-137zM133 784v752h137v-752h-137z" />
<glyph unicode="&#xa7;" horiz-adv-x="1241" d="M123 334h153q0 -85 83.5 -138t215.5 -53t215.5 55.5t83.5 141.5q0 17 -3.5 30t-13 23.5t-20 18.5t-29.5 15.5t-35.5 12t-45.5 10.5t-51.5 10t-61 11t-67.5 12q-112 21 -196 60.5t-138.5 100t-59.5 140t42 179.5q-72 60 -72 170q0 146 119.5 243t332.5 97q198 0 324.5 -95 t128.5 -239h-154q0 85 -83.5 137.5t-215.5 52.5t-215.5 -55t-83.5 -141q0 -17 3.5 -30t13.5 -24t20 -19t29.5 -15t35.5 -12t45.5 -11t52 -10t61.5 -11t67 -12q112 -21 196 -60.5t139 -100t60.5 -139.5t-41.5 -179q70 -58 70 -170q0 -146 -120 -243t-333 -97q-198 0 -324 95 t-128 239zM297 909q-64 -224 281 -284q190 -33 278 -62q65 225 -283 285q-192 33 -276 61z" />
<glyph unicode="&#xa8;" horiz-adv-x="991" d="M205 1182q0 36 27.5 63t66.5 27q37 0 64.5 -27.5t27.5 -62.5q0 -40 -27.5 -68.5t-64.5 -28.5q-39 0 -66.5 28.5t-27.5 68.5zM600 1182q0 36 27.5 63t66.5 27q37 0 64.5 -27.5t27.5 -62.5q0 -40 -27.5 -68.5t-64.5 -28.5q-39 0 -66.5 28.5t-27.5 68.5z" />
<glyph unicode="&#xa9;" horiz-adv-x="1646" d="M61 735q0 148 60.5 285t162.5 237t243.5 160t295.5 60t295.5 -60t243.5 -160t162.5 -237t60.5 -285q0 -154 -60.5 -294.5t-162.5 -242t-243 -161.5t-296 -60t-296 60t-243 161.5t-162.5 242t-60.5 294.5zM176 735q0 -170 86 -315.5t235.5 -231.5t325.5 -86t325.5 86 t235.5 231.5t86 315.5q0 121 -51 234.5t-137 197.5t-206.5 134.5t-252.5 50.5t-252.5 -50.5t-206.5 -134.5t-137 -197.5t-51 -234.5zM430 735q0 160 115 274.5t276 114.5q123 0 222 -71t141 -185h-127q-36 65 -98.5 104.5t-137.5 39.5q-114 0 -193 -81.5t-79 -195.5 q0 -112 80 -196t192 -84q74 0 136.5 40.5t99.5 106.5h129q-40 -115 -140 -187.5t-225 -72.5q-160 0 -275.5 117t-115.5 276z" />
<glyph unicode="&#xaa;" horiz-adv-x="1159" d="M72 449q0 126 63 233.5t170.5 170t233.5 62.5q101 0 189 -43t151 -118v147h137v-905h-137v147q-63 -77 -151.5 -121.5t-188.5 -44.5q-125 0 -233.5 65t-171 174t-62.5 233zM215 449q0 -136 93 -236t227 -100q133 0 234 101t101 235q0 135 -100 233t-235 98t-227.5 -96.5 t-92.5 -234.5z" />
<glyph unicode="&#xab;" horiz-adv-x="927" d="M123 463l270 342h154l-271 -342l271 -342h-154zM422 463l270 342h154l-271 -342l271 -342h-154z" />
<glyph unicode="&#xac;" horiz-adv-x="1234" d="M82 764v137h1030v-569h-141v432h-889z" />
<glyph unicode="&#xad;" d="M133 516v137h785v-137h-785z" />
<glyph unicode="&#xae;" horiz-adv-x="1646" d="M61 735q0 148 60.5 285t162.5 237t243.5 160t295.5 60t295.5 -60t243.5 -160t162.5 -237t60.5 -285q0 -154 -60.5 -294.5t-162.5 -242t-243 -161.5t-296 -60t-296 60t-243 161.5t-162.5 242t-60.5 294.5zM176 735q0 -170 86 -315.5t235.5 -231.5t325.5 -86t325.5 86 t235.5 231.5t86 315.5q0 121 -51 234.5t-137 197.5t-206.5 134.5t-252.5 50.5t-252.5 -50.5t-206.5 -134.5t-137 -197.5t-51 -234.5zM590 365v761h256q112 0 181 -67.5t69 -173.5q0 -81 -42.5 -142t-113.5 -86l227 -292h-139l-217 278h-113v-278h-108zM698 741h148 q65 0 102 38.5t37 105.5q0 65 -37.5 102t-101.5 37h-148v-283z" />
<glyph unicode="&#xaf;" d="M213 1638v121h807v-121h-807z" />
<glyph unicode="&#xb0;" horiz-adv-x="550" d="M53 1282q0 94 64 157.5t159 63.5q94 0 158 -63.5t64 -157.5q0 -95 -64 -159t-158 -64q-95 0 -159 64t-64 159zM158 1282q0 -50 34.5 -84.5t83.5 -34.5q48 0 82.5 35t34.5 84q0 47 -35 82t-82 35q-49 0 -83.5 -34.5t-34.5 -82.5z" />
<glyph unicode="&#xb1;" d="M102 0v137h1024v-137h-1024zM102 514v137h445v326h137v-326h442v-137h-442v-305h-137v305h-445z" />
<glyph unicode="&#xb2;" horiz-adv-x="645" d="M82 901v117q0 73 39 127.5t94 86.5t110.5 59t94.5 62t39 79q0 65 -33.5 103t-99.5 38q-65 0 -100.5 -42.5t-32.5 -111.5h-105q-8 107 59.5 179.5t178.5 72.5q103 0 170 -61.5t67 -177.5q0 -59 -27.5 -105.5t-68.5 -74t-89 -55t-89 -49.5t-68.5 -55.5t-27.5 -74.5v-21h366 v-96h-477z" />
<glyph unicode="&#xb3;" horiz-adv-x="616" d="M82 901v96h205q66 0 105.5 40t39.5 106t-39.5 105.5t-105.5 39.5h-101l164 254h-268v96h438l-172 -262q86 -19 136.5 -81t50.5 -152q0 -106 -69 -174t-179 -68h-205z" />
<glyph unicode="&#xb4;" d="M408 1085l213 297h178l-238 -297h-153z" />
<glyph unicode="&#xb6;" d="M272 1096q0 152 108.5 260t260.5 108h293l133 -2l-4 -1728h-133l4 1618l-160 2l-4 -1620h-133l2 991q-151 0 -259 109t-108 262z" />
<glyph unicode="&#xb7;" horiz-adv-x="1046" d="M410 633q0 42 33 76t81 34q41 0 77 -35t36 -75q0 -44 -35 -80.5t-78 -36.5q-48 0 -81 35.5t-33 81.5z" />
<glyph unicode="&#xb8;" d="M438 -197h103q0 -38 34.5 -65t83.5 -27q47 0 81 27t34 65q0 37 -34 64t-81 27h-86l50 106h98l-14 -31q76 -12 124 -58t48 -108q0 -73 -63.5 -122.5t-156.5 -49.5q-94 0 -157.5 49.5t-63.5 122.5z" />
<glyph unicode="&#xb9;" horiz-adv-x="528" d="M123 1536v102h262v-735h-113v623z" />
<glyph unicode="&#xba;" horiz-adv-x="1077" d="M72 449q0 126 63 233.5t170.5 170t233.5 62.5t233.5 -62.5t170.5 -170t63 -233.5q0 -124 -62.5 -233t-171 -174t-233.5 -65t-233.5 65t-171 174t-62.5 233zM215 449q0 -135 94.5 -235.5t229.5 -100.5t229 100.5t94 235.5q0 137 -93.5 234t-229.5 97t-230 -97t-94 -234z " />
<glyph unicode="&#xbb;" horiz-adv-x="845" d="M0 121l270 342l-270 342h154l270 -342l-270 -342h-154zM299 121l270 342l-270 342h154l270 -342l-270 -342h-154z" />
<glyph unicode="&#xbc;" horiz-adv-x="1433" d="M61 -100l1168 1636h143l-1165 -1636h-146zM152 1370v92h210v-727h-110v619zM836 178v88l333 463h103v-455h104v-96h-104v-178h-101v178h-335zM963 274h208v295z" />
<glyph unicode="&#xbd;" horiz-adv-x="1505" d="M72 -100l1167 1636h143l-1165 -1636h-145zM190 1370v92h211v-727h-110v619zM963 0v147q0 83 49.5 142t152.5 84q84 21 120 51t36 86t-27 81t-86 25q-72 0 -99 -25.5t-24 -74.5h-116q-5 93 58 153t181 60q104 0 165 -58.5t61 -160.5q0 -98 -62 -157t-196 -93 q-58 -14 -79.5 -41.5t-21.5 -71.5v-36h348v-111h-460z" />
<glyph unicode="&#xbe;" horiz-adv-x="1433" d="M61 -100l1168 1636h143l-1165 -1636h-146zM61 723v96h205q66 0 105 39t39 105q0 67 -39 105t-105 38h-108l164 260h-261v96h433l-168 -268q85 -18 135.5 -79t50.5 -152q0 -104 -69.5 -172t-176.5 -68h-205zM815 178v88l334 463h102v-455h105v-96h-105v-178h-100v178h-336 zM942 274h209v295z" />
<glyph unicode="&#xbf;" horiz-adv-x="1030" d="M80 -49q0 258 278 352q77 26 93.5 86.5t15.5 236.5v18.5v16.5v19h149q0 -26 1 -75q1 -169 -13 -235q-26 -114 -125 -172q-38 -21 -88 -38q-57 -19 -94 -59t-49 -76.5t-12 -73.5q0 -100 72.5 -163.5t189.5 -63.5q113 0 180 58.5t78 156.5h155q-6 -161 -118 -263t-295 -102 q-204 0 -311 106t-107 271zM434 950q0 47 33.5 81t79.5 34q47 0 81 -34t34 -81q0 -46 -34 -79t-81 -33q-46 0 -79.5 33t-33.5 79z" />
<glyph unicode="&#xc0;" horiz-adv-x="1476" d="M0 0l657 1462h162l658 -1462h-162l-262 582h-629l-262 -582h-162zM487 725h502l-250 557zM539 1944h178l213 -297h-154z" />
<glyph unicode="&#xc1;" horiz-adv-x="1476" d="M0 0l657 1462h162l658 -1462h-162l-262 582h-629l-262 -582h-162zM487 725h502l-250 557zM557 1647l213 297h178l-237 -297h-154z" />
<glyph unicode="&#xc2;" horiz-adv-x="1476" d="M0 0l657 1462h162l658 -1462h-162l-262 582h-629l-262 -582h-162zM487 725h502l-250 557zM498 1688l213 274h59l213 -274l-82 -58l-160 180l-161 -180z" />
<glyph unicode="&#xc3;" horiz-adv-x="1476" d="M0 0l657 1462h162l658 -1462h-162l-262 582h-629l-262 -582h-162zM453 1638q0 16 4.5 36.5t18 49t34.5 51t58 38.5t85 16q39 0 69 -13.5t45 -29.5t34 -29.5t37 -13.5q32 0 50 18.5t20 36.5l3 19h127q0 -16 -4.5 -36.5t-18 -49t-34.5 -51t-58 -38.5t-85 -16 q-34 0 -63 13.5t-45 29.5t-36.5 29.5t-40.5 13.5t-35 -7.5t-22 -18.5t-11 -22t-5 -18v-8h-127zM487 725h502l-250 557z" />
<glyph unicode="&#xc4;" horiz-adv-x="1476" d="M0 0l657 1462h162l658 -1462h-162l-262 582h-629l-262 -582h-162zM449 1743q0 36 27.5 63t66.5 27q37 0 64.5 -27.5t27.5 -62.5q0 -39 -27.5 -67.5t-64.5 -28.5q-40 0 -67 28t-27 68zM487 725h502l-250 557zM844 1743q0 36 27.5 63t66.5 27q37 0 64.5 -27.5t27.5 -62.5 q0 -39 -27.5 -67.5t-64.5 -28.5q-40 0 -67 28t-27 68z" />
<glyph unicode="&#xc5;" horiz-adv-x="1476" d="M0 0l657 1462h162l658 -1462h-162l-262 582h-629l-262 -582h-162zM487 725h502l-250 557zM561 1823q0 69 52.5 121.5t125.5 52.5q69 0 122.5 -53t53.5 -121q0 -72 -53.5 -126.5t-122.5 -54.5q-73 0 -125.5 54t-52.5 127zM649 1823q0 -38 26 -65t64 -27q36 0 62 27t26 65 q0 34 -26.5 60t-61.5 26q-38 0 -64 -26t-26 -60z" />
<glyph unicode="&#xc6;" horiz-adv-x="1810" d="M0 0l657 1462h797v-143h-580l95 -451h522v-143h-492l123 -582h545v-143h-674l-116 582h-453l-262 -582h-162zM487 725h361l-111 557z" />
<glyph unicode="&#xc7;" horiz-adv-x="1558" d="M61 737q0 148 61 285t163 237t244 160t296 60q201 0 373.5 -98.5t274.5 -262.5h-187q-85 99 -204.5 155t-256.5 56q-166 0 -306 -80.5t-221 -216.5t-81 -295q0 -166 81 -306t221 -221t306 -81q139 0 260.5 58t204.5 161h187q-95 -159 -255 -257.5t-350 -108.5l-6 -13 q76 -12 124 -58t48 -108q0 -73 -63 -122.5t-156 -49.5q-94 0 -157.5 49.5t-63.5 122.5h102q0 -38 35 -65t84 -27q47 0 81 27t34 65q0 37 -34 64t-81 27h-86l41 88q-147 10 -278.5 73.5t-227 163.5t-151.5 235t-56 283z" />
<glyph unicode="&#xc8;" horiz-adv-x="1155" d="M164 0v1462h848v-143h-699v-410h658v-143h-658v-623h699v-143h-848zM395 1944h178l213 -297h-153z" />
<glyph unicode="&#xc9;" horiz-adv-x="1155" d="M164 0v1462h848v-143h-699v-410h658v-143h-658v-623h699v-143h-848zM414 1647l213 297h178l-238 -297h-153z" />
<glyph unicode="&#xca;" horiz-adv-x="1155" d="M164 0v1462h848v-143h-699v-410h658v-143h-658v-623h699v-143h-848zM354 1688l213 274h60l213 -274l-82 -58l-160 180l-162 -180z" />
<glyph unicode="&#xcb;" horiz-adv-x="1155" d="M164 0v1462h848v-143h-699v-410h658v-143h-658v-623h699v-143h-848zM305 1743q0 36 27.5 63t66.5 27q37 0 65 -27.5t28 -62.5q0 -39 -28 -67.5t-65 -28.5q-40 0 -67 28t-27 68zM700 1743q0 36 28 63t67 27q37 0 64.5 -27.5t27.5 -62.5q0 -39 -27.5 -67.5t-64.5 -28.5 q-40 0 -67.5 28t-27.5 68z" />
<glyph unicode="&#xcc;" horiz-adv-x="477" d="M39 1944h178l213 -297h-154zM164 0v1462h149v-1462h-149z" />
<glyph unicode="&#xcd;" horiz-adv-x="477" d="M57 1647l213 297h179l-238 -297h-154zM164 0v1462h149v-1462h-149z" />
<glyph unicode="&#xce;" horiz-adv-x="477" d="M-2 1688l213 274h59l213 -274l-82 -58l-159 180l-162 -180zM164 0v1462h149v-1462h-149z" />
<glyph unicode="&#xcf;" horiz-adv-x="477" d="M-51 1743q0 36 27.5 63t66.5 27q37 0 64.5 -27.5t27.5 -62.5q0 -39 -27.5 -67.5t-64.5 -28.5q-40 0 -67 28t-27 68zM164 0v1462h149v-1462h-149zM344 1743q0 36 27.5 63t66.5 27q37 0 64.5 -27.5t27.5 -62.5q0 -39 -27.5 -67.5t-64.5 -28.5q-40 0 -67 28t-27 68z" />
<glyph unicode="&#xd0;" horiz-adv-x="1378" d="M51 516v137h113v809h389q398 0 570.5 -170t172.5 -561t-172.5 -561t-570.5 -170h-389v516h-113zM313 143h240q315 0 451.5 136.5t136.5 451.5t-136.5 451.5t-451.5 136.5h-240v-666h523v-137h-523v-373z" />
<glyph unicode="&#xd1;" horiz-adv-x="1572" d="M164 0v1462h180l916 -1257v1257h149v-1462h-180l-916 1257v-1257h-149zM504 1638q0 16 4.5 37t18 49t34.5 50.5t58.5 38.5t85.5 16q39 0 69 -13.5t45 -29.5t33.5 -29.5t36.5 -13.5q32 0 50.5 18.5t20.5 36.5l3 19h127q0 -16 -4.5 -37t-18 -49t-34.5 -50.5t-58.5 -38.5 t-85.5 -16q-34 0 -63 13.5t-44.5 29.5t-36 29.5t-40.5 13.5q-32 0 -50.5 -18.5t-20.5 -37.5l-3 -18h-127z" />
<glyph unicode="&#xd2;" horiz-adv-x="1667" d="M72 741q0 148 60.5 285t162.5 237t243.5 160t295.5 60t295.5 -60t243 -160t162 -237t60.5 -285q0 -206 -102 -380t-277 -275.5t-382 -101.5q-155 0 -296 60t-243 161.5t-162.5 241.5t-60.5 294zM227 741q0 -166 80.5 -306t220.5 -221t306 -81t305.5 81t220 221t80.5 306 q0 159 -80.5 295t-220 216.5t-305.5 80.5t-306 -80.5t-220.5 -216.5t-80.5 -295zM633 1950h178l213 -297h-154z" />
<glyph unicode="&#xd3;" horiz-adv-x="1667" d="M72 741q0 148 60.5 285t162.5 237t243.5 160t295.5 60t295.5 -60t243 -160t162 -237t60.5 -285q0 -206 -102 -380t-277 -275.5t-382 -101.5q-155 0 -296 60t-243 161.5t-162.5 241.5t-60.5 294zM227 741q0 -166 80.5 -306t220.5 -221t306 -81t305.5 81t220 221t80.5 306 q0 159 -80.5 295t-220 216.5t-305.5 80.5t-306 -80.5t-220.5 -216.5t-80.5 -295zM651 1653l213 297h178l-237 -297h-154z" />
<glyph unicode="&#xd4;" horiz-adv-x="1667" d="M72 741q0 148 60.5 285t162.5 237t243.5 160t295.5 60t295.5 -60t243 -160t162 -237t60.5 -285q0 -206 -102 -380t-277 -275.5t-382 -101.5q-155 0 -296 60t-243 161.5t-162.5 241.5t-60.5 294zM227 741q0 -166 80.5 -306t220.5 -221t306 -81t305.5 81t220 221t80.5 306 q0 159 -80.5 295t-220 216.5t-305.5 80.5t-306 -80.5t-220.5 -216.5t-80.5 -295zM592 1694l213 274h59l213 -274l-82 -58l-159 181l-162 -181z" />
<glyph unicode="&#xd5;" horiz-adv-x="1667" d="M72 741q0 148 60.5 285t162.5 237t243.5 160t295.5 60t295.5 -60t243 -160t162 -237t60.5 -285q0 -206 -102 -380t-277 -275.5t-382 -101.5q-155 0 -296 60t-243 161.5t-162.5 241.5t-60.5 294zM227 741q0 -166 80.5 -306t220.5 -221t306 -81t305.5 81t220 221t80.5 306 q0 159 -80.5 295t-220 216.5t-305.5 80.5t-306 -80.5t-220.5 -216.5t-80.5 -295zM547 1645q0 16 4.5 36.5t18 48.5t34.5 50.5t58.5 38.5t85.5 16q39 0 69 -13.5t45 -29.5t33.5 -29.5t36.5 -13.5q32 0 50.5 18.5t21.5 36.5l2 19h127q0 -16 -4.5 -37t-18 -49t-34.5 -50.5 t-58.5 -38.5t-85.5 -16q-34 0 -63 13.5t-44.5 29.5t-36 29.5t-40.5 13.5q-32 0 -50.5 -18t-21.5 -36l-2 -19h-127z" />
<glyph unicode="&#xd6;" horiz-adv-x="1667" d="M72 741q0 148 60.5 285t162.5 237t243.5 160t295.5 60t295.5 -60t243 -160t162 -237t60.5 -285q0 -206 -102 -380t-277 -275.5t-382 -101.5q-155 0 -296 60t-243 161.5t-162.5 241.5t-60.5 294zM227 741q0 -166 80.5 -306t220.5 -221t306 -81t305.5 81t220 221t80.5 306 q0 159 -80.5 295t-220 216.5t-305.5 80.5t-306 -80.5t-220.5 -216.5t-80.5 -295zM543 1749q0 36 27.5 63t66.5 27q37 0 64.5 -27.5t27.5 -62.5q0 -39 -27.5 -67.5t-64.5 -28.5q-40 0 -67 28t-27 68zM938 1749q0 36 27.5 63t66.5 27q37 0 64.5 -27.5t27.5 -62.5 q0 -39 -27.5 -67.5t-64.5 -28.5q-40 0 -67 28t-27 68z" />
<glyph unicode="&#xd7;" horiz-adv-x="946" d="M61 901l99 96l315 -313l313 313l97 -98l-314 -313l312 -312l-97 -98l-311 313l-313 -313l-99 96l314 314z" />
<glyph unicode="&#xd8;" horiz-adv-x="1667" d="M72 741q0 148 60.5 285t162.5 237t243.5 160t295.5 60q79 0 163 -19l25 76h139l-37 -115q210 -86 340.5 -272.5t130.5 -411.5q0 -206 -102 -380t-277 -275.5t-382 -101.5q-96 0 -175 20l-47 -141h-139l59 182q-206 89 -333 277.5t-127 418.5zM227 741q0 -183 97 -331.5 t256 -221.5l370 1135q-62 10 -116 10q-166 0 -306 -80.5t-220.5 -216.5t-80.5 -295zM705 147q57 -14 129 -14q166 0 305.5 81t220 221t80.5 306q0 177 -100.5 324t-262.5 219z" />
<glyph unicode="&#xd9;" horiz-adv-x="1368" d="M123 528v934h149v-934q0 -194 109.5 -302.5t304.5 -108.5q193 0 301.5 108.5t108.5 302.5v934h149v-934q0 -264 -147.5 -412.5t-411.5 -148.5q-265 0 -414 148.5t-149 412.5zM483 1944h179l212 -297h-153z" />
<glyph unicode="&#xda;" horiz-adv-x="1368" d="M123 528v934h149v-934q0 -194 109.5 -302.5t304.5 -108.5q193 0 301.5 108.5t108.5 302.5v934h149v-934q0 -264 -147.5 -412.5t-411.5 -148.5q-265 0 -414 148.5t-149 412.5zM502 1647l213 297h178l-238 -297h-153z" />
<glyph unicode="&#xdb;" horiz-adv-x="1368" d="M123 528v934h149v-934q0 -194 109.5 -302.5t304.5 -108.5q193 0 301.5 108.5t108.5 302.5v934h149v-934q0 -264 -147.5 -412.5t-411.5 -148.5q-265 0 -414 148.5t-149 412.5zM442 1688l213 274h60l213 -274l-82 -58l-160 180l-162 -180z" />
<glyph unicode="&#xdc;" horiz-adv-x="1368" d="M123 528v934h149v-934q0 -194 109.5 -302.5t304.5 -108.5q193 0 301.5 108.5t108.5 302.5v934h149v-934q0 -264 -147.5 -412.5t-411.5 -148.5q-265 0 -414 148.5t-149 412.5zM393 1743q0 36 27.5 63t66.5 27q37 0 65 -27.5t28 -62.5q0 -39 -28 -67.5t-65 -28.5 q-40 0 -67 28t-27 68zM788 1743q0 36 28 63t67 27q37 0 64.5 -27.5t27.5 -62.5q0 -39 -27.5 -67.5t-64.5 -28.5q-40 0 -67.5 28t-27.5 68z" />
<glyph unicode="&#xdd;" horiz-adv-x="1175" d="M0 1462h162l426 -870l426 870h162l-717 -1462h-162l209 428zM436 1647l213 297h178l-237 -297h-154z" />
<glyph unicode="&#xde;" horiz-adv-x="964" d="M123 0v1462h149v-325q333 5 482 -82.5t149 -290.5q0 -212 -154.5 -326.5t-476.5 -107.5v-330h-149zM272 473q252 -7 364 68.5t112 222.5q0 137 -104 185.5t-372 43.5v-520z" />
<glyph unicode="&#xdf;" horiz-adv-x="999" d="M137 0v1151q0 68 20 123t52 89.5t74.5 57.5t84 32t83.5 9q163 0 261.5 -95.5t98.5 -252.5q0 -59 -20 -114t-44.5 -89.5t-44.5 -74t-20 -70.5q0 -22 24.5 -51.5t59 -63.5t69 -75.5t59 -101t24.5 -126.5q0 -105 -31 -178.5t-92 -115t-141.5 -59.5t-190.5 -18v144 q152 0 231.5 50t79.5 177q0 42 -17.5 82.5t-43.5 71.5t-56.5 64.5t-56.5 62.5t-43.5 65t-17.5 72q0 51 20 100t44.5 82t44.5 78t20 88q0 96 -61 150.5t-156 54.5q-74 0 -122 -49t-48 -121v-1149h-144z" />
<glyph unicode="&#xe0;" horiz-adv-x="1159" d="M72 449q0 126 63 233.5t170.5 170t233.5 62.5q101 0 189 -43t151 -118v147h137v-905h-137v147q-63 -77 -151.5 -121.5t-188.5 -44.5q-125 0 -233.5 65t-171 174t-62.5 233zM215 449q0 -136 93 -236t227 -100q133 0 234 101t101 235q0 135 -100 233t-235 98t-227.5 -96.5 t-92.5 -234.5zM348 1413h178l213 -297h-153z" />
<glyph unicode="&#xe1;" horiz-adv-x="1159" d="M72 449q0 126 63 233.5t170.5 170t233.5 62.5q101 0 189 -43t151 -118v147h137v-905h-137v147q-63 -77 -151.5 -121.5t-188.5 -44.5q-125 0 -233.5 65t-171 174t-62.5 233zM215 449q0 -136 93 -236t227 -100q133 0 234 101t101 235q0 135 -100 233t-235 98t-227.5 -96.5 t-92.5 -234.5zM367 1116l213 297h178l-238 -297h-153z" />
<glyph unicode="&#xe2;" horiz-adv-x="1159" d="M72 449q0 126 63 233.5t170.5 170t233.5 62.5q101 0 189 -43t151 -118v147h137v-905h-137v147q-63 -77 -151.5 -121.5t-188.5 -44.5q-125 0 -233.5 65t-171 174t-62.5 233zM215 449q0 -136 93 -236t227 -100q133 0 234 101t101 235q0 135 -100 233t-235 98t-227.5 -96.5 t-92.5 -234.5zM307 1157l213 275h60l213 -275l-82 -57l-160 180l-162 -180z" />
<glyph unicode="&#xe3;" horiz-adv-x="1159" d="M72 449q0 126 63 233.5t170.5 170t233.5 62.5q101 0 189 -43t151 -118v147h137v-905h-137v147q-63 -77 -151.5 -121.5t-188.5 -44.5q-125 0 -233.5 65t-171 174t-62.5 233zM215 449q0 -136 93 -236t227 -100q133 0 234 101t101 235q0 135 -100 233t-235 98t-227.5 -96.5 t-92.5 -234.5zM262 1108q0 16 4.5 36.5t18 48.5t34.5 50.5t58.5 38.5t85.5 16q39 0 69 -13.5t45 -29.5t33.5 -29.5t36.5 -13.5q32 0 50.5 18.5t20.5 37.5l3 18h127q0 -16 -4.5 -36.5t-18 -48.5t-34.5 -50.5t-58.5 -38.5t-85.5 -16q-34 0 -63 13.5t-44.5 29.5t-36 29.5 t-40.5 13.5q-32 0 -50.5 -18.5t-20.5 -37.5l-3 -18h-127z" />
<glyph unicode="&#xe4;" horiz-adv-x="1159" d="M72 449q0 126 63 233.5t170.5 170t233.5 62.5q101 0 189 -43t151 -118v147h137v-905h-137v147q-63 -77 -151.5 -121.5t-188.5 -44.5q-125 0 -233.5 65t-171 174t-62.5 233zM215 449q0 -136 93 -236t227 -100q133 0 234 101t101 235q0 135 -100 233t-235 98t-227.5 -96.5 t-92.5 -234.5zM258 1212q0 36 27.5 63.5t66.5 27.5q36 0 64 -27.5t28 -63.5q0 -39 -27.5 -67.5t-64.5 -28.5q-40 0 -67 28t-27 68zM653 1212q0 36 28 63.5t67 27.5q36 0 64 -27.5t28 -63.5q0 -39 -27.5 -67.5t-64.5 -28.5q-40 0 -67.5 28t-27.5 68z" />
<glyph unicode="&#xe5;" horiz-adv-x="1159" d="M72 449q0 126 63 233.5t170.5 170t233.5 62.5q101 0 189 -43t151 -118v147h137v-905h-137v147q-63 -77 -151.5 -121.5t-188.5 -44.5q-125 0 -233.5 65t-171 174t-62.5 233zM215 449q0 -136 93 -236t227 -100q133 0 234 101t101 235q0 135 -100 233t-235 98t-227.5 -96.5 t-92.5 -234.5zM371 1292q0 68 52.5 121t125.5 53q69 0 122.5 -53t53.5 -121q0 -72 -53.5 -126t-122.5 -54q-73 0 -125.5 53.5t-52.5 126.5zM459 1292q0 -38 26 -65t64 -27q36 0 62 27t26 65q0 34 -26.5 60t-61.5 26q-38 0 -64 -26t-26 -60z" />
<glyph unicode="&#xe6;" horiz-adv-x="2185" d="M72 449q0 126 63 233.5t170.5 170t233.5 62.5q101 0 189 -43t151 -118v147h137v-123q64 64 149.5 100.5t180.5 36.5q192 0 329 -137t137 -329v-64h-784q22 -115 111 -193.5t207 -78.5q76 0 140.5 33.5t108.5 91.5h170q-58 -118 -171 -189.5t-248 -71.5q-94 0 -179.5 38 t-150.5 104v-123h-137v147q-63 -77 -151.5 -121.5t-188.5 -44.5q-125 0 -233.5 65t-171 174t-62.5 233zM215 449q0 -136 93 -236t227 -100q133 0 234 101t101 235q0 135 -100 233t-235 98t-227.5 -96.5t-92.5 -234.5zM1028 516h635q-24 114 -112 189t-205 75 q-118 0 -206 -75t-112 -189z" />
<glyph unicode="&#xe7;" horiz-adv-x="1050" d="M72 449q0 126 63 233.5t170.5 170t233.5 62.5q148 0 268 -85.5t170 -221.5h-154q-42 78 -117 125t-167 47q-136 0 -230 -97t-94 -234q0 -135 94.5 -235.5t229.5 -100.5q91 0 166 48.5t118 127.5h156q-41 -121 -141.5 -204t-231.5 -103l-6 -13q76 -12 124 -58t48 -108 q0 -73 -63 -122.5t-156 -49.5q-94 0 -157.5 49.5t-63.5 122.5h102q0 -38 35 -65t84 -27q47 0 81 27t34 65q0 37 -34 64t-81 27h-86l39 86q-181 12 -307.5 149.5t-126.5 319.5z" />
<glyph unicode="&#xe8;" horiz-adv-x="1077" d="M72 449q0 126 63 233.5t170.5 170t233.5 62.5t233.5 -62.5t170.5 -170t63 -233.5v-64h-785q22 -115 111 -193.5t207 -78.5q76 0 140.5 33.5t108.5 91.5h170q-58 -118 -171 -189.5t-248 -71.5q-125 0 -233.5 65t-171 174t-62.5 233zM221 516h635q-24 114 -112 189t-205 75 q-118 0 -206 -75t-112 -189zM350 1382h178l213 -297h-153z" />
<glyph unicode="&#xe9;" horiz-adv-x="1077" d="M72 449q0 126 63 233.5t170.5 170t233.5 62.5t233.5 -62.5t170.5 -170t63 -233.5v-64h-785q22 -115 111 -193.5t207 -78.5q76 0 140.5 33.5t108.5 91.5h170q-58 -118 -171 -189.5t-248 -71.5q-125 0 -233.5 65t-171 174t-62.5 233zM221 516h635q-24 114 -112 189t-205 75 q-118 0 -206 -75t-112 -189zM369 1085l213 297h178l-238 -297h-153z" />
<glyph unicode="&#xea;" horiz-adv-x="1077" d="M72 449q0 126 63 233.5t170.5 170t233.5 62.5t233.5 -62.5t170.5 -170t63 -233.5v-64h-785q22 -115 111 -193.5t207 -78.5q76 0 140.5 33.5t108.5 91.5h170q-58 -118 -171 -189.5t-248 -71.5q-125 0 -233.5 65t-171 174t-62.5 233zM221 516h635q-24 114 -112 189t-205 75 q-118 0 -206 -75t-112 -189zM309 1126l213 275h60l213 -275l-82 -57l-160 180l-162 -180z" />
<glyph unicode="&#xeb;" horiz-adv-x="1077" d="M72 449q0 126 63 233.5t170.5 170t233.5 62.5t233.5 -62.5t170.5 -170t63 -233.5v-64h-785q22 -115 111 -193.5t207 -78.5q76 0 140.5 33.5t108.5 91.5h170q-58 -118 -171 -189.5t-248 -71.5q-125 0 -233.5 65t-171 174t-62.5 233zM221 516h635q-24 114 -112 189t-205 75 q-118 0 -206 -75t-112 -189zM260 1182q0 36 27.5 63t66.5 27q37 0 64.5 -27.5t27.5 -62.5q0 -40 -27.5 -68.5t-64.5 -28.5q-39 0 -66.5 28.5t-27.5 68.5zM655 1182q0 36 28 63t67 27q37 0 64.5 -27.5t27.5 -62.5q0 -40 -27.5 -68.5t-64.5 -28.5q-40 0 -67.5 28.5t-27.5 68.5 z" />
<glyph unicode="&#xec;" horiz-adv-x="348" d="M-25 1413h179l213 -297h-154zM102 0v901h144v-901h-144z" />
<glyph unicode="&#xed;" horiz-adv-x="348" d="M-6 1116l213 297h178l-238 -297h-153zM102 0v901h144v-901h-144z" />
<glyph unicode="&#xee;" horiz-adv-x="348" d="M-66 1157l213 275h60l213 -275l-82 -57l-160 180l-162 -180zM102 0v901h144v-901h-144z" />
<glyph unicode="&#xef;" horiz-adv-x="348" d="M-115 1212q0 36 28 63.5t67 27.5q36 0 64 -27.5t28 -63.5q0 -39 -27.5 -67.5t-64.5 -28.5q-40 0 -67.5 28t-27.5 68zM102 0v901h144v-901h-144zM281 1212q0 36 27.5 63.5t66.5 27.5q37 0 64.5 -27.5t27.5 -63.5q0 -39 -27.5 -67.5t-64.5 -28.5q-40 0 -67 28t-27 68z" />
<glyph unicode="&#xf0;" d="M51 449q0 126 63 233.5t170.5 170t233.5 62.5q158 0 281 -96q-62 180 -181 281q-45 40 -94 69l-69 -131l-105 60l70 129q-88 41 -217 69v142q3 -1 32 -5t50 -8.5t55 -13t71.5 -22.5t75.5 -33l72 133l107 -57l-74 -138q64 -41 119 -88q68 -58 119.5 -132t80 -147 t47.5 -147.5t24 -137.5t6.5 -112.5t-0.5 -77.5l-3 -28q-11 -183 -147 -315t-320 -132q-125 0 -233.5 65t-171 174t-62.5 233zM195 449q0 -135 94 -235.5t229 -100.5t229.5 100.5t94.5 235.5q0 137 -94 234t-230 97t-229.5 -97t-93.5 -234z" />
<glyph unicode="&#xf1;" horiz-adv-x="1067" d="M143 0v901h138v-108q113 122 294 122q195 0 282 -93.5t87 -307.5v-514h-137v514q0 132 -59.5 199t-172.5 67q-139 3 -216.5 -74t-77.5 -227v-479h-138zM252 1108q0 16 4.5 36.5t18 48.5t34.5 50.5t58.5 38.5t85.5 16q39 0 69 -13.5t45 -29.5t33.5 -29.5t36.5 -13.5 q32 0 50.5 18.5t20.5 37.5l3 18h127q0 -16 -4.5 -36.5t-18 -48.5t-34.5 -50.5t-58.5 -38.5t-85.5 -16q-34 0 -63 13.5t-44.5 29.5t-36 29.5t-40.5 13.5q-32 0 -50.5 -18.5t-20.5 -37.5l-3 -18h-127z" />
<glyph unicode="&#xf2;" horiz-adv-x="1077" d="M72 449q0 126 63 233.5t170.5 170t233.5 62.5t233.5 -62.5t170.5 -170t63 -233.5q0 -124 -62.5 -233t-171 -174t-233.5 -65t-233.5 65t-171 174t-62.5 233zM215 449q0 -135 94.5 -235.5t229.5 -100.5t229 100.5t94 235.5q0 137 -93.5 234t-229.5 97t-230 -97t-94 -234z M338 1413h178l213 -297h-154z" />
<glyph unicode="&#xf3;" horiz-adv-x="1077" d="M72 449q0 126 63 233.5t170.5 170t233.5 62.5t233.5 -62.5t170.5 -170t63 -233.5q0 -124 -62.5 -233t-171 -174t-233.5 -65t-233.5 65t-171 174t-62.5 233zM215 449q0 -135 94.5 -235.5t229.5 -100.5t229 100.5t94 235.5q0 137 -93.5 234t-229.5 97t-230 -97t-94 -234z M356 1116l213 297h179l-238 -297h-154z" />
<glyph unicode="&#xf4;" horiz-adv-x="1077" d="M72 449q0 126 63 233.5t170.5 170t233.5 62.5t233.5 -62.5t170.5 -170t63 -233.5q0 -124 -62.5 -233t-171 -174t-233.5 -65t-233.5 65t-171 174t-62.5 233zM215 449q0 -135 94.5 -235.5t229.5 -100.5t229 100.5t94 235.5q0 137 -93.5 234t-229.5 97t-230 -97t-94 -234z M297 1157l213 275h59l213 -275l-82 -57l-159 180l-162 -180z" />
<glyph unicode="&#xf5;" horiz-adv-x="1077" d="M72 449q0 126 63 233.5t170.5 170t233.5 62.5t233.5 -62.5t170.5 -170t63 -233.5q0 -124 -62.5 -233t-171 -174t-233.5 -65t-233.5 65t-171 174t-62.5 233zM215 449q0 -135 94.5 -235.5t229.5 -100.5t229 100.5t94 235.5q0 137 -93.5 234t-229.5 97t-230 -97t-94 -234z M252 1108q0 16 4.5 36.5t18 48.5t34.5 50.5t58.5 38.5t85.5 16q39 0 69 -13.5t45 -29.5t33.5 -29.5t36.5 -13.5q32 0 50.5 18.5t20.5 37.5l3 18h127q0 -16 -4.5 -36.5t-18 -48.5t-34.5 -50.5t-58.5 -38.5t-85.5 -16q-34 0 -63 13.5t-44.5 29.5t-36 29.5t-40.5 13.5 q-32 0 -50.5 -18.5t-20.5 -37.5l-3 -18h-127z" />
<glyph unicode="&#xf6;" horiz-adv-x="1077" d="M72 449q0 126 63 233.5t170.5 170t233.5 62.5t233.5 -62.5t170.5 -170t63 -233.5q0 -124 -62.5 -233t-171 -174t-233.5 -65t-233.5 65t-171 174t-62.5 233zM215 449q0 -135 94.5 -235.5t229.5 -100.5t229 100.5t94 235.5q0 137 -93.5 234t-229.5 97t-230 -97t-94 -234z M248 1212q0 36 27.5 63.5t66.5 27.5q36 0 64 -27.5t28 -63.5q0 -39 -27.5 -67.5t-64.5 -28.5q-40 0 -67 28t-27 68zM643 1212q0 36 27.5 63.5t66.5 27.5q37 0 64.5 -27.5t27.5 -63.5q0 -39 -27.5 -67.5t-64.5 -28.5q-40 0 -67 28t-27 68z" />
<glyph unicode="&#xf7;" d="M98 496v137h1024v-137h-1024zM506 100q0 46 34 79.5t81 33.5q46 0 79 -33.5t33 -79.5q0 -47 -33 -80.5t-79 -33.5q-47 0 -81 33.5t-34 80.5zM506 1018q0 46 34 79t81 33q46 0 79 -33t33 -79q0 -47 -33 -81t-79 -34q-47 0 -81 34t-34 81z" />
<glyph unicode="&#xf8;" horiz-adv-x="1036" d="M72 449q0 126 63 233.5t170.5 170t233.5 62.5q39 0 77 -6l60 181l125 -43l-60 -179q119 -58 192 -171.5t73 -247.5q0 -124 -62.5 -233t-171 -174t-233.5 -65q-43 0 -86 9l-54 -166l-125 43l56 166q-117 61 -187.5 174.5t-70.5 245.5zM215 449q0 -89 42.5 -165.5 t115.5 -121.5l200 616q-10 2 -34 2q-136 0 -230 -97t-94 -234zM496 115q14 -2 43 -2q135 0 229 100.5t94 235.5q0 91 -44.5 168t-119.5 120z" />
<glyph unicode="&#xf9;" horiz-adv-x="1067" d="M123 387v514h137v-514q0 -132 59.5 -199t172.5 -67q139 0 216.5 77t77.5 224v479h138v-901h-138v109q-114 -123 -294 -123q-195 0 -282 93.5t-87 307.5zM315 1413h179l213 -297h-154z" />
<glyph unicode="&#xfa;" horiz-adv-x="1067" d="M123 387v514h137v-514q0 -132 59.5 -199t172.5 -67q139 0 216.5 77t77.5 224v479h138v-901h-138v109q-114 -123 -294 -123q-195 0 -282 93.5t-87 307.5zM334 1116l213 297h178l-238 -297h-153z" />
<glyph unicode="&#xfb;" horiz-adv-x="1067" d="M123 387v514h137v-514q0 -132 59.5 -199t172.5 -67q139 0 216.5 77t77.5 224v479h138v-901h-138v109q-114 -123 -294 -123q-195 0 -282 93.5t-87 307.5zM274 1157l213 275h60l213 -275l-82 -57l-160 180l-162 -180z" />
<glyph unicode="&#xfc;" horiz-adv-x="1067" d="M123 387v514h137v-514q0 -132 59.5 -199t172.5 -67q139 0 216.5 77t77.5 224v479h138v-901h-138v109q-114 -123 -294 -123q-195 0 -282 93.5t-87 307.5zM225 1212q0 36 27.5 63.5t66.5 27.5q37 0 65 -28t28 -63q0 -39 -28 -67.5t-65 -28.5q-40 0 -67 28t-27 68zM621 1212 q0 36 27.5 63.5t66.5 27.5q37 0 64.5 -27.5t27.5 -63.5q0 -39 -27.5 -67.5t-64.5 -28.5q-40 0 -67 28t-27 68z" />
<glyph unicode="&#xfd;" horiz-adv-x="972" d="M12 901h162l318 -637l319 637h162l-400 -801l-256 -510h-161l256 512zM297 1085l213 297h178l-237 -297h-154z" />
<glyph unicode="&#xfe;" d="M164 -244v1463h149v-304q371 0 532 -108t161 -358q0 -252 -161.5 -362t-531.5 -110v-221h-149zM313 113q293 0 421 78t128 258q0 178 -127.5 255.5t-421.5 77.5v-669z" />
<glyph unicode="&#xff;" horiz-adv-x="972" d="M12 901h162l318 -637l319 637h162l-400 -801l-256 -510h-161l256 512zM188 1182q0 36 28 63t67 27q37 0 64.5 -27.5t27.5 -62.5q0 -40 -27.5 -68.5t-64.5 -28.5q-40 0 -67.5 28.5t-27.5 68.5zM584 1182q0 36 27.5 63t66.5 27q37 0 64.5 -27.5t27.5 -62.5 q0 -40 -27.5 -68.5t-64.5 -28.5q-39 0 -66.5 28.5t-27.5 68.5z" />
<glyph unicode="&#x152;" horiz-adv-x="2439" d="M72 741q0 148 60.5 285t162.5 237t243.5 160t295.5 60q185 0 346 -83t268 -224v286h848v-143h-699v-410h658v-143h-658v-623h699v-143h-848v295q-106 -144 -267.5 -227.5t-346.5 -83.5q-155 0 -296 60t-243 161.5t-162.5 241.5t-60.5 294zM227 741q0 -166 80.5 -306 t220.5 -221t306 -81t305.5 81t220 221t80.5 306q0 159 -80.5 295t-220 216.5t-305.5 80.5t-306 -80.5t-220.5 -216.5t-80.5 -295z" />
<glyph unicode="&#x153;" horiz-adv-x="2072" d="M115 449q0 126 63 233.5t170.5 170t233.5 62.5q125 0 232.5 -63t170.5 -168q61 105 168.5 168t232.5 63q126 0 233.5 -62.5t170.5 -170t63 -233.5v-64h-784q22 -115 110.5 -193.5t206.5 -78.5q76 0 141 34t109 91h170q-58 -118 -171.5 -189.5t-248.5 -71.5 q-125 0 -232.5 64.5t-168.5 171.5q-63 -107 -170.5 -171.5t-232.5 -64.5t-233.5 65t-171 174t-62.5 233zM258 449q0 -135 94.5 -235.5t229.5 -100.5t229 100.5t94 235.5q0 137 -93.5 234t-229.5 97t-230 -97t-94 -234zM1069 516h635q-24 114 -112.5 189t-205.5 75 q-118 0 -205.5 -75t-111.5 -189z" />
<glyph unicode="&#x178;" horiz-adv-x="1175" d="M0 1462h162l426 -870l426 870h162l-717 -1462h-162l209 428zM328 1743q0 36 27.5 63t66.5 27q37 0 64.5 -27.5t27.5 -62.5q0 -39 -27.5 -67.5t-64.5 -28.5q-40 0 -67 28t-27 68zM723 1743q0 36 27.5 63t66.5 27q37 0 64.5 -27.5t27.5 -62.5q0 -39 -27.5 -67.5 t-64.5 -28.5q-40 0 -67 28t-27 68z" />
<glyph unicode="&#x2c6;" d="M383 1126l213 275h59l213 -275l-82 -57l-159 180l-162 -180z" />
<glyph unicode="&#x2dc;" d="M299 1077q0 16 4.5 37t18 49t34.5 50.5t58.5 38.5t85.5 16q39 0 69 -13.5t45 -29.5t33.5 -29.5t36.5 -13.5q32 0 50.5 18t21.5 36l2 19h127q0 -16 -4.5 -36.5t-18 -48.5t-34.5 -50.5t-58.5 -38.5t-85.5 -16q-34 0 -63 13.5t-44.5 29.5t-36 29.5t-40.5 13.5 q-32 0 -50.5 -18.5t-21.5 -36.5l-2 -19h-127z" />
<glyph unicode="&#x2000;" horiz-adv-x="998" />
<glyph unicode="&#x2001;" horiz-adv-x="1997" />
<glyph unicode="&#x2002;" horiz-adv-x="998" />
<glyph unicode="&#x2003;" horiz-adv-x="1997" />
<glyph unicode="&#x2004;" horiz-adv-x="665" />
<glyph unicode="&#x2005;" horiz-adv-x="499" />
<glyph unicode="&#x2006;" horiz-adv-x="332" />
<glyph unicode="&#x2007;" horiz-adv-x="332" />
<glyph unicode="&#x2008;" horiz-adv-x="249" />
<glyph unicode="&#x2009;" horiz-adv-x="399" />
<glyph unicode="&#x200a;" horiz-adv-x="110" />
<glyph unicode="&#x2010;" horiz-adv-x="1050" d="M133 516v137h785v-137h-785z" />
<glyph unicode="&#x2011;" horiz-adv-x="1050" d="M133 516v137h785v-137h-785z" />
<glyph unicode="&#x2012;" horiz-adv-x="1050" d="M133 516v137h785v-137h-785z" />
<glyph unicode="&#x2013;" horiz-adv-x="1146" d="M61 496v137h1024v-137h-1024z" />
<glyph unicode="&#x2014;" horiz-adv-x="2170" d="M61 496v137h2048v-137h-2048z" />
<glyph unicode="&#x2018;" horiz-adv-x="409" d="M68 1198q0 34 22 78l98 186h66l-39 -155q35 -11 57.5 -41t22.5 -68q0 -46 -34 -79.5t-81 -33.5q-46 0 -79 33.5t-33 79.5z" />
<glyph unicode="&#x2019;" horiz-adv-x="409" d="M51 1360q0 46 34 79.5t81 33.5q46 0 79.5 -33.5t33.5 -79.5q0 -32 -23 -78l-98 -186h-66l39 155q-35 11 -57.5 41t-22.5 68z" />
<glyph unicode="&#x201a;" horiz-adv-x="409" d="M51 104q0 46 34 79.5t81 33.5q46 0 79.5 -33.5t33.5 -79.5q0 -31 -23 -77l-98 -187h-66l39 156q-36 11 -58 40.5t-22 67.5z" />
<glyph unicode="&#x201c;" horiz-adv-x="788" d="M111 1198q0 34 22 78l98 186h66l-39 -155q35 -11 57.5 -41t22.5 -68q0 -46 -34 -79.5t-81 -33.5q-46 0 -79 33.5t-33 79.5zM426 1198q0 32 23 78l98 186h65l-39 -155q35 -11 57.5 -41t22.5 -68q0 -46 -33.5 -79.5t-80.5 -33.5q-46 0 -79.5 33.5t-33.5 79.5z" />
<glyph unicode="&#x201d;" horiz-adv-x="788" d="M135 1360q0 46 34 79.5t81 33.5q46 0 79 -33.5t33 -79.5q0 -34 -22 -78l-98 -186h-66l39 155q-35 11 -57.5 41t-22.5 68zM451 1360q0 46 33.5 79.5t80.5 33.5q46 0 79.5 -33.5t33.5 -79.5q0 -32 -23 -78l-98 -186h-65l38 155q-35 11 -57 41t-22 68z" />
<glyph unicode="&#x201e;" horiz-adv-x="808" d="M135 104q0 46 34 79.5t81 33.5q46 0 79 -33.5t33 -79.5q0 -33 -22 -77l-98 -187h-66l39 156q-36 11 -58 40.5t-22 67.5zM451 104q0 46 33.5 79.5t80.5 33.5q46 0 79.5 -33.5t33.5 -79.5q0 -31 -23 -77l-98 -187h-65l38 156q-35 11 -57 40.5t-22 67.5z" />
<glyph unicode="&#x2022;" d="M365 641q0 98 72.5 173t178.5 75q97 0 173.5 -76.5t76.5 -171.5q0 -99 -76.5 -176.5t-173.5 -77.5q-106 0 -178.5 76t-72.5 178z" />
<glyph unicode="&#x2026;" horiz-adv-x="1126" d="M51 104q0 46 34 79.5t81 33.5q46 0 79.5 -33.5t33.5 -79.5q0 -47 -33.5 -80.5t-79.5 -33.5q-47 0 -81 33.5t-34 80.5zM461 104q0 46 33.5 79.5t80.5 33.5q46 0 79.5 -33.5t33.5 -79.5q0 -47 -33.5 -80.5t-79.5 -33.5q-47 0 -80.5 33.5t-33.5 80.5zM870 104q0 46 34 79.5 t81 33.5q46 0 79.5 -33.5t33.5 -79.5q0 -47 -33.5 -80.5t-79.5 -33.5q-47 0 -81 33.5t-34 80.5z" />
<glyph unicode="&#x202f;" horiz-adv-x="399" />
<glyph unicode="&#x2039;" horiz-adv-x="669" d="M123 463l270 342h154l-271 -342l271 -342h-154z" />
<glyph unicode="&#x203a;" horiz-adv-x="669" d="M123 121l270 342l-270 342h153l271 -342l-271 -342h-153z" />
<glyph unicode="&#x205f;" horiz-adv-x="499" />
<glyph unicode="&#x20ac;" horiz-adv-x="1118" d="M-53 545v131h209v49q0 43 2 63h-211v132h225q25 142 85 254.5t155 190.5t223.5 103.5t290.5 -6.5v-149q-125 31 -224.5 15.5t-174.5 -73.5t-123.5 -142.5t-71.5 -192.5h596l-43 -132h-572q-2 -20 -2 -63l2 -49h543l-45 -131h-481q22 -109 69.5 -194.5t123 -143.5t176 -73 t227.5 16v-150q-164 -33 -293.5 -7.5t-225 103.5t-155 191.5t-82.5 257.5h-223z" />
<glyph unicode="&#x2122;" horiz-adv-x="1607" d="M82 1376v92h614v-92h-270v-659h-96v659h-248zM778 717v751h103l272 -632l274 632h101v-751h-94v520l-230 -520h-100l-230 522v-522h-96z" />
<glyph unicode="&#x25fc;" horiz-adv-x="901" d="M0 0v901h901v-901h-901z" />
</font>
</defs>
</svg>
